<?xml version="1.0" encoding="utf-8" standalone="no"?>
<!DOCTYPE svg PUBLIC "-//W3C//DTD SVG 1.1//EN"
  "http://www.w3.org/Graphics/SVG/1.1/DTD/svg11.dtd">
<svg xmlns:xlink="http://www.w3.org/1999/xlink" width="445.295937pt" height="325.986375pt" viewBox="0 0 445.295937 325.986375" xmlns="http://www.w3.org/2000/svg" version="1.1">
 <metadata>
  <rdf:RDF xmlns:dc="http://purl.org/dc/elements/1.1/" xmlns:cc="http://creativecommons.org/ns#" xmlns:rdf="http://www.w3.org/1999/02/22-rdf-syntax-ns#">
   <cc:Work>
    <dc:type rdf:resource="http://purl.org/dc/dcmitype/StillImage"/>
    <dc:date>2023-03-14T09:54:35.354512</dc:date>
    <dc:format>image/svg+xml</dc:format>
    <dc:creator>
     <cc:Agent>
      <dc:title>Matplotlib v3.6.0, https://matplotlib.org/</dc:title>
     </cc:Agent>
    </dc:creator>
   </cc:Work>
  </rdf:RDF>
 </metadata>
 <defs>
  <style type="text/css">*{stroke-linejoin: round; stroke-linecap: butt}</style>
 </defs>
 <g id="figure_1">
  <g id="patch_1">
   <path d="M 0 325.986375 
L 445.295937 325.986375 
L 445.295937 0 
L 0 0 
z
" style="fill: #ffffff"/>
  </g>
  <g id="axes_1">
   <g id="patch_2">
    <path d="M 56.50625 288.430125 
L 413.62625 288.430125 
L 413.62625 22.318125 
L 56.50625 22.318125 
z
" style="fill: #ffffff"/>
   </g>
   <g id="patch_3">
    <path d="M 111.377006 288.430125 
L 119.87139 288.430125 
L 119.87139 283.460713 
L 111.377006 283.460713 
z
" clip-path="url(#pca4deb6c2a)" style="fill: #1f77b4; opacity: 0.5"/>
   </g>
   <g id="patch_4">
    <path d="M 119.87139 288.430125 
L 128.365773 288.430125 
L 128.365773 253.644243 
L 119.87139 253.644243 
z
" clip-path="url(#pca4deb6c2a)" style="fill: #1f77b4; opacity: 0.5"/>
   </g>
   <g id="patch_5">
    <path d="M 128.365773 288.430125 
L 136.860157 288.430125 
L 136.860157 174.133654 
L 128.365773 174.133654 
z
" clip-path="url(#pca4deb6c2a)" style="fill: #1f77b4; opacity: 0.5"/>
   </g>
   <g id="patch_6">
    <path d="M 136.860157 288.430125 
L 145.354541 288.430125 
L 145.354541 144.317184 
L 136.860157 144.317184 
z
" clip-path="url(#pca4deb6c2a)" style="fill: #1f77b4; opacity: 0.5"/>
   </g>
   <g id="patch_7">
    <path d="M 145.354541 288.430125 
L 153.848925 288.430125 
L 153.848925 89.653654 
L 145.354541 89.653654 
z
" clip-path="url(#pca4deb6c2a)" style="fill: #1f77b4; opacity: 0.5"/>
   </g>
   <g id="patch_8">
    <path d="M 153.848925 288.430125 
L 162.343308 288.430125 
L 162.343308 34.990125 
L 153.848925 34.990125 
z
" clip-path="url(#pca4deb6c2a)" style="fill: #1f77b4; opacity: 0.5"/>
   </g>
   <g id="patch_9">
    <path d="M 162.343308 288.430125 
L 170.837692 288.430125 
L 170.837692 149.286596 
L 162.343308 149.286596 
z
" clip-path="url(#pca4deb6c2a)" style="fill: #1f77b4; opacity: 0.5"/>
   </g>
   <g id="patch_10">
    <path d="M 170.837692 288.430125 
L 179.332076 288.430125 
L 179.332076 223.827772 
L 170.837692 223.827772 
z
" clip-path="url(#pca4deb6c2a)" style="fill: #1f77b4; opacity: 0.5"/>
   </g>
   <g id="patch_11">
    <path d="M 179.332076 288.430125 
L 187.82646 288.430125 
L 187.82646 258.613654 
L 179.332076 258.613654 
z
" clip-path="url(#pca4deb6c2a)" style="fill: #1f77b4; opacity: 0.5"/>
   </g>
   <g id="patch_12">
    <path d="M 187.82646 288.430125 
L 196.320844 288.430125 
L 196.320844 278.491301 
L 187.82646 278.491301 
z
" clip-path="url(#pca4deb6c2a)" style="fill: #1f77b4; opacity: 0.5"/>
   </g>
   <g id="patch_13">
    <path d="M 196.320844 288.430125 
L 204.815227 288.430125 
L 204.815227 263.583066 
L 196.320844 263.583066 
z
" clip-path="url(#pca4deb6c2a)" style="fill: #1f77b4; opacity: 0.5"/>
   </g>
   <g id="patch_14">
    <path d="M 204.815227 288.430125 
L 213.309611 288.430125 
L 213.309611 248.674831 
L 204.815227 248.674831 
z
" clip-path="url(#pca4deb6c2a)" style="fill: #1f77b4; opacity: 0.5"/>
   </g>
   <g id="patch_15">
    <path d="M 213.309611 288.430125 
L 221.803995 288.430125 
L 221.803995 184.072478 
L 213.309611 184.072478 
z
" clip-path="url(#pca4deb6c2a)" style="fill: #1f77b4; opacity: 0.5"/>
   </g>
   <g id="patch_16">
    <path d="M 221.803995 288.430125 
L 230.298379 288.430125 
L 230.298379 94.623066 
L 221.803995 94.623066 
z
" clip-path="url(#pca4deb6c2a)" style="fill: #1f77b4; opacity: 0.5"/>
   </g>
   <g id="patch_17">
    <path d="M 230.298379 288.430125 
L 238.792762 288.430125 
L 238.792762 94.623066 
L 230.298379 94.623066 
z
" clip-path="url(#pca4deb6c2a)" style="fill: #1f77b4; opacity: 0.5"/>
   </g>
   <g id="patch_18">
    <path d="M 238.792762 288.430125 
L 247.287146 288.430125 
L 247.287146 89.653654 
L 238.792762 89.653654 
z
" clip-path="url(#pca4deb6c2a)" style="fill: #1f77b4; opacity: 0.5"/>
   </g>
   <g id="patch_19">
    <path d="M 247.287146 288.430125 
L 255.78153 288.430125 
L 255.78153 149.286596 
L 247.287146 149.286596 
z
" clip-path="url(#pca4deb6c2a)" style="fill: #1f77b4; opacity: 0.5"/>
   </g>
   <g id="patch_20">
    <path d="M 255.78153 288.430125 
L 264.275914 288.430125 
L 264.275914 238.736007 
L 255.78153 238.736007 
z
" clip-path="url(#pca4deb6c2a)" style="fill: #1f77b4; opacity: 0.5"/>
   </g>
   <g id="patch_21">
    <path d="M 264.275914 288.430125 
L 272.770297 288.430125 
L 272.770297 243.705419 
L 264.275914 243.705419 
z
" clip-path="url(#pca4deb6c2a)" style="fill: #1f77b4; opacity: 0.5"/>
   </g>
   <g id="patch_22">
    <path d="M 272.770297 288.430125 
L 281.264681 288.430125 
L 281.264681 283.460713 
L 272.770297 283.460713 
z
" clip-path="url(#pca4deb6c2a)" style="fill: #1f77b4; opacity: 0.5"/>
   </g>
   <g id="patch_23">
    <path d="M 281.264681 288.430125 
L 289.759065 288.430125 
L 289.759065 268.552478 
L 281.264681 268.552478 
z
" clip-path="url(#pca4deb6c2a)" style="fill: #1f77b4; opacity: 0.5"/>
   </g>
   <g id="patch_24">
    <path d="M 289.759065 288.430125 
L 298.253449 288.430125 
L 298.253449 228.797184 
L 289.759065 228.797184 
z
" clip-path="url(#pca4deb6c2a)" style="fill: #1f77b4; opacity: 0.5"/>
   </g>
   <g id="patch_25">
    <path d="M 298.253449 288.430125 
L 306.747832 288.430125 
L 306.747832 203.950125 
L 298.253449 203.950125 
z
" clip-path="url(#pca4deb6c2a)" style="fill: #1f77b4; opacity: 0.5"/>
   </g>
   <g id="patch_26">
    <path d="M 306.747832 288.430125 
L 315.242216 288.430125 
L 315.242216 198.980713 
L 306.747832 198.980713 
z
" clip-path="url(#pca4deb6c2a)" style="fill: #1f77b4; opacity: 0.5"/>
   </g>
   <g id="patch_27">
    <path d="M 315.242216 288.430125 
L 323.7366 288.430125 
L 323.7366 203.950125 
L 315.242216 203.950125 
z
" clip-path="url(#pca4deb6c2a)" style="fill: #1f77b4; opacity: 0.5"/>
   </g>
   <g id="patch_28">
    <path d="M 323.7366 288.430125 
L 332.230984 288.430125 
L 332.230984 213.888949 
L 323.7366 213.888949 
z
" clip-path="url(#pca4deb6c2a)" style="fill: #1f77b4; opacity: 0.5"/>
   </g>
   <g id="patch_29">
    <path d="M 332.230984 288.430125 
L 340.725368 288.430125 
L 340.725368 248.674831 
L 332.230984 248.674831 
z
" clip-path="url(#pca4deb6c2a)" style="fill: #1f77b4; opacity: 0.5"/>
   </g>
   <g id="patch_30">
    <path d="M 340.725368 288.430125 
L 349.219751 288.430125 
L 349.219751 253.644243 
L 340.725368 253.644243 
z
" clip-path="url(#pca4deb6c2a)" style="fill: #1f77b4; opacity: 0.5"/>
   </g>
   <g id="patch_31">
    <path d="M 349.219751 288.430125 
L 357.714135 288.430125 
L 357.714135 283.460713 
L 349.219751 283.460713 
z
" clip-path="url(#pca4deb6c2a)" style="fill: #1f77b4; opacity: 0.5"/>
   </g>
   <g id="patch_32">
    <path d="M 357.714135 288.430125 
L 366.208519 288.430125 
L 366.208519 283.460713 
L 357.714135 283.460713 
z
" clip-path="url(#pca4deb6c2a)" style="fill: #1f77b4; opacity: 0.5"/>
   </g>
   <g id="matplotlib.axis_1">
    <g id="xtick_1">
     <g id="line2d_1">
      <defs>
       <path id="m0a0c0896cd" d="M 0 0 
L 0 3.5 
" style="stroke: #000000; stroke-width: 0.8"/>
      </defs>
      <g>
       <use xlink:href="#m0a0c0896cd" x="72.738977" y="288.430125" style="stroke: #000000; stroke-width: 0.8"/>
      </g>
     </g>
     <g id="text_1">
      <!-- −5.0 -->
      <g transform="translate(60.597571 303.028562) scale(0.1 -0.1)">
       <defs>
        <path id="DejaVuSans-2212" d="M 678 2272 
L 4684 2272 
L 4684 1741 
L 678 1741 
L 678 2272 
z
" transform="scale(0.015625)"/>
        <path id="DejaVuSans-35" d="M 691 4666 
L 3169 4666 
L 3169 4134 
L 1269 4134 
L 1269 2991 
Q 1406 3038 1543 3061 
Q 1681 3084 1819 3084 
Q 2600 3084 3056 2656 
Q 3513 2228 3513 1497 
Q 3513 744 3044 326 
Q 2575 -91 1722 -91 
Q 1428 -91 1123 -41 
Q 819 9 494 109 
L 494 744 
Q 775 591 1075 516 
Q 1375 441 1709 441 
Q 2250 441 2565 725 
Q 2881 1009 2881 1497 
Q 2881 1984 2565 2268 
Q 2250 2553 1709 2553 
Q 1456 2553 1204 2497 
Q 953 2441 691 2322 
L 691 4666 
z
" transform="scale(0.015625)"/>
        <path id="DejaVuSans-2e" d="M 684 794 
L 1344 794 
L 1344 0 
L 684 0 
L 684 794 
z
" transform="scale(0.015625)"/>
        <path id="DejaVuSans-30" d="M 2034 4250 
Q 1547 4250 1301 3770 
Q 1056 3291 1056 2328 
Q 1056 1369 1301 889 
Q 1547 409 2034 409 
Q 2525 409 2770 889 
Q 3016 1369 3016 2328 
Q 3016 3291 2770 3770 
Q 2525 4250 2034 4250 
z
M 2034 4750 
Q 2819 4750 3233 4129 
Q 3647 3509 3647 2328 
Q 3647 1150 3233 529 
Q 2819 -91 2034 -91 
Q 1250 -91 836 529 
Q 422 1150 422 2328 
Q 422 3509 836 4129 
Q 1250 4750 2034 4750 
z
" transform="scale(0.015625)"/>
       </defs>
       <use xlink:href="#DejaVuSans-2212"/>
       <use xlink:href="#DejaVuSans-35" x="83.789062"/>
       <use xlink:href="#DejaVuSans-2e" x="147.412109"/>
       <use xlink:href="#DejaVuSans-30" x="179.199219"/>
      </g>
     </g>
    </g>
    <g id="xtick_2">
     <g id="line2d_2">
      <g>
       <use xlink:href="#m0a0c0896cd" x="113.320795" y="288.430125" style="stroke: #000000; stroke-width: 0.8"/>
      </g>
     </g>
     <g id="text_2">
      <!-- −2.5 -->
      <g transform="translate(101.179389 303.028562) scale(0.1 -0.1)">
       <defs>
        <path id="DejaVuSans-32" d="M 1228 531 
L 3431 531 
L 3431 0 
L 469 0 
L 469 531 
Q 828 903 1448 1529 
Q 2069 2156 2228 2338 
Q 2531 2678 2651 2914 
Q 2772 3150 2772 3378 
Q 2772 3750 2511 3984 
Q 2250 4219 1831 4219 
Q 1534 4219 1204 4116 
Q 875 4013 500 3803 
L 500 4441 
Q 881 4594 1212 4672 
Q 1544 4750 1819 4750 
Q 2544 4750 2975 4387 
Q 3406 4025 3406 3419 
Q 3406 3131 3298 2873 
Q 3191 2616 2906 2266 
Q 2828 2175 2409 1742 
Q 1991 1309 1228 531 
z
" transform="scale(0.015625)"/>
       </defs>
       <use xlink:href="#DejaVuSans-2212"/>
       <use xlink:href="#DejaVuSans-32" x="83.789062"/>
       <use xlink:href="#DejaVuSans-2e" x="147.412109"/>
       <use xlink:href="#DejaVuSans-35" x="179.199219"/>
      </g>
     </g>
    </g>
    <g id="xtick_3">
     <g id="line2d_3">
      <g>
       <use xlink:href="#m0a0c0896cd" x="153.902614" y="288.430125" style="stroke: #000000; stroke-width: 0.8"/>
      </g>
     </g>
     <g id="text_3">
      <!-- 0.0 -->
      <g transform="translate(145.951051 303.028562) scale(0.1 -0.1)">
       <use xlink:href="#DejaVuSans-30"/>
       <use xlink:href="#DejaVuSans-2e" x="63.623047"/>
       <use xlink:href="#DejaVuSans-30" x="95.410156"/>
      </g>
     </g>
    </g>
    <g id="xtick_4">
     <g id="line2d_4">
      <g>
       <use xlink:href="#m0a0c0896cd" x="194.484432" y="288.430125" style="stroke: #000000; stroke-width: 0.8"/>
      </g>
     </g>
     <g id="text_4">
      <!-- 2.5 -->
      <g transform="translate(186.532869 303.028562) scale(0.1 -0.1)">
       <use xlink:href="#DejaVuSans-32"/>
       <use xlink:href="#DejaVuSans-2e" x="63.623047"/>
       <use xlink:href="#DejaVuSans-35" x="95.410156"/>
      </g>
     </g>
    </g>
    <g id="xtick_5">
     <g id="line2d_5">
      <g>
       <use xlink:href="#m0a0c0896cd" x="235.06625" y="288.430125" style="stroke: #000000; stroke-width: 0.8"/>
      </g>
     </g>
     <g id="text_5">
      <!-- 5.0 -->
      <g transform="translate(227.114688 303.028562) scale(0.1 -0.1)">
       <use xlink:href="#DejaVuSans-35"/>
       <use xlink:href="#DejaVuSans-2e" x="63.623047"/>
       <use xlink:href="#DejaVuSans-30" x="95.410156"/>
      </g>
     </g>
    </g>
    <g id="xtick_6">
     <g id="line2d_6">
      <g>
       <use xlink:href="#m0a0c0896cd" x="275.648068" y="288.430125" style="stroke: #000000; stroke-width: 0.8"/>
      </g>
     </g>
     <g id="text_6">
      <!-- 7.5 -->
      <g transform="translate(267.696506 303.028562) scale(0.1 -0.1)">
       <defs>
        <path id="DejaVuSans-37" d="M 525 4666 
L 3525 4666 
L 3525 4397 
L 1831 0 
L 1172 0 
L 2766 4134 
L 525 4134 
L 525 4666 
z
" transform="scale(0.015625)"/>
       </defs>
       <use xlink:href="#DejaVuSans-37"/>
       <use xlink:href="#DejaVuSans-2e" x="63.623047"/>
       <use xlink:href="#DejaVuSans-35" x="95.410156"/>
      </g>
     </g>
    </g>
    <g id="xtick_7">
     <g id="line2d_7">
      <g>
       <use xlink:href="#m0a0c0896cd" x="316.229886" y="288.430125" style="stroke: #000000; stroke-width: 0.8"/>
      </g>
     </g>
     <g id="text_7">
      <!-- 10.0 -->
      <g transform="translate(305.097074 303.028562) scale(0.1 -0.1)">
       <defs>
        <path id="DejaVuSans-31" d="M 794 531 
L 1825 531 
L 1825 4091 
L 703 3866 
L 703 4441 
L 1819 4666 
L 2450 4666 
L 2450 531 
L 3481 531 
L 3481 0 
L 794 0 
L 794 531 
z
" transform="scale(0.015625)"/>
       </defs>
       <use xlink:href="#DejaVuSans-31"/>
       <use xlink:href="#DejaVuSans-30" x="63.623047"/>
       <use xlink:href="#DejaVuSans-2e" x="127.246094"/>
       <use xlink:href="#DejaVuSans-30" x="159.033203"/>
      </g>
     </g>
    </g>
    <g id="xtick_8">
     <g id="line2d_8">
      <g>
       <use xlink:href="#m0a0c0896cd" x="356.811705" y="288.430125" style="stroke: #000000; stroke-width: 0.8"/>
      </g>
     </g>
     <g id="text_8">
      <!-- 12.5 -->
      <g transform="translate(345.678892 303.028562) scale(0.1 -0.1)">
       <use xlink:href="#DejaVuSans-31"/>
       <use xlink:href="#DejaVuSans-32" x="63.623047"/>
       <use xlink:href="#DejaVuSans-2e" x="127.246094"/>
       <use xlink:href="#DejaVuSans-35" x="159.033203"/>
      </g>
     </g>
    </g>
    <g id="xtick_9">
     <g id="line2d_9">
      <g>
       <use xlink:href="#m0a0c0896cd" x="397.393523" y="288.430125" style="stroke: #000000; stroke-width: 0.8"/>
      </g>
     </g>
     <g id="text_9">
      <!-- 15.0 -->
      <g transform="translate(386.26071 303.028562) scale(0.1 -0.1)">
       <use xlink:href="#DejaVuSans-31"/>
       <use xlink:href="#DejaVuSans-35" x="63.623047"/>
       <use xlink:href="#DejaVuSans-2e" x="127.246094"/>
       <use xlink:href="#DejaVuSans-30" x="159.033203"/>
      </g>
     </g>
    </g>
    <g id="text_10">
     <!-- x -->
     <g transform="translate(232.106875 316.706687) scale(0.1 -0.1)">
      <defs>
       <path id="DejaVuSans-78" d="M 3513 3500 
L 2247 1797 
L 3578 0 
L 2900 0 
L 1881 1375 
L 863 0 
L 184 0 
L 1544 1831 
L 300 3500 
L 978 3500 
L 1906 2253 
L 2834 3500 
L 3513 3500 
z
" transform="scale(0.015625)"/>
      </defs>
      <use xlink:href="#DejaVuSans-78"/>
     </g>
    </g>
   </g>
   <g id="matplotlib.axis_2">
    <g id="ytick_1">
     <g id="line2d_10">
      <defs>
       <path id="m15e3afca68" d="M 0 0 
L -3.5 0 
" style="stroke: #000000; stroke-width: 0.8"/>
      </defs>
      <g>
       <use xlink:href="#m15e3afca68" x="56.50625" y="288.430125" style="stroke: #000000; stroke-width: 0.8"/>
      </g>
     </g>
     <g id="text_11">
      <!-- 0.000 -->
      <g transform="translate(20.878125 292.229344) scale(0.1 -0.1)">
       <use xlink:href="#DejaVuSans-30"/>
       <use xlink:href="#DejaVuSans-2e" x="63.623047"/>
       <use xlink:href="#DejaVuSans-30" x="95.410156"/>
       <use xlink:href="#DejaVuSans-30" x="159.033203"/>
       <use xlink:href="#DejaVuSans-30" x="222.65625"/>
      </g>
     </g>
    </g>
    <g id="ytick_2">
     <g id="line2d_11">
      <g>
       <use xlink:href="#m15e3afca68" x="56.50625" y="255.924735" style="stroke: #000000; stroke-width: 0.8"/>
      </g>
     </g>
     <g id="text_12">
      <!-- 0.025 -->
      <g transform="translate(20.878125 259.723954) scale(0.1 -0.1)">
       <use xlink:href="#DejaVuSans-30"/>
       <use xlink:href="#DejaVuSans-2e" x="63.623047"/>
       <use xlink:href="#DejaVuSans-30" x="95.410156"/>
       <use xlink:href="#DejaVuSans-32" x="159.033203"/>
       <use xlink:href="#DejaVuSans-35" x="222.65625"/>
      </g>
     </g>
    </g>
    <g id="ytick_3">
     <g id="line2d_12">
      <g>
       <use xlink:href="#m15e3afca68" x="56.50625" y="223.419345" style="stroke: #000000; stroke-width: 0.8"/>
      </g>
     </g>
     <g id="text_13">
      <!-- 0.050 -->
      <g transform="translate(20.878125 227.218564) scale(0.1 -0.1)">
       <use xlink:href="#DejaVuSans-30"/>
       <use xlink:href="#DejaVuSans-2e" x="63.623047"/>
       <use xlink:href="#DejaVuSans-30" x="95.410156"/>
       <use xlink:href="#DejaVuSans-35" x="159.033203"/>
       <use xlink:href="#DejaVuSans-30" x="222.65625"/>
      </g>
     </g>
    </g>
    <g id="ytick_4">
     <g id="line2d_13">
      <g>
       <use xlink:href="#m15e3afca68" x="56.50625" y="190.913955" style="stroke: #000000; stroke-width: 0.8"/>
      </g>
     </g>
     <g id="text_14">
      <!-- 0.075 -->
      <g transform="translate(20.878125 194.713173) scale(0.1 -0.1)">
       <use xlink:href="#DejaVuSans-30"/>
       <use xlink:href="#DejaVuSans-2e" x="63.623047"/>
       <use xlink:href="#DejaVuSans-30" x="95.410156"/>
       <use xlink:href="#DejaVuSans-37" x="159.033203"/>
       <use xlink:href="#DejaVuSans-35" x="222.65625"/>
      </g>
     </g>
    </g>
    <g id="ytick_5">
     <g id="line2d_14">
      <g>
       <use xlink:href="#m15e3afca68" x="56.50625" y="158.408565" style="stroke: #000000; stroke-width: 0.8"/>
      </g>
     </g>
     <g id="text_15">
      <!-- 0.100 -->
      <g transform="translate(20.878125 162.207783) scale(0.1 -0.1)">
       <use xlink:href="#DejaVuSans-30"/>
       <use xlink:href="#DejaVuSans-2e" x="63.623047"/>
       <use xlink:href="#DejaVuSans-31" x="95.410156"/>
       <use xlink:href="#DejaVuSans-30" x="159.033203"/>
       <use xlink:href="#DejaVuSans-30" x="222.65625"/>
      </g>
     </g>
    </g>
    <g id="ytick_6">
     <g id="line2d_15">
      <g>
       <use xlink:href="#m15e3afca68" x="56.50625" y="125.903174" style="stroke: #000000; stroke-width: 0.8"/>
      </g>
     </g>
     <g id="text_16">
      <!-- 0.125 -->
      <g transform="translate(20.878125 129.702393) scale(0.1 -0.1)">
       <use xlink:href="#DejaVuSans-30"/>
       <use xlink:href="#DejaVuSans-2e" x="63.623047"/>
       <use xlink:href="#DejaVuSans-31" x="95.410156"/>
       <use xlink:href="#DejaVuSans-32" x="159.033203"/>
       <use xlink:href="#DejaVuSans-35" x="222.65625"/>
      </g>
     </g>
    </g>
    <g id="ytick_7">
     <g id="line2d_16">
      <g>
       <use xlink:href="#m15e3afca68" x="56.50625" y="93.397784" style="stroke: #000000; stroke-width: 0.8"/>
      </g>
     </g>
     <g id="text_17">
      <!-- 0.150 -->
      <g transform="translate(20.878125 97.197003) scale(0.1 -0.1)">
       <use xlink:href="#DejaVuSans-30"/>
       <use xlink:href="#DejaVuSans-2e" x="63.623047"/>
       <use xlink:href="#DejaVuSans-31" x="95.410156"/>
       <use xlink:href="#DejaVuSans-35" x="159.033203"/>
       <use xlink:href="#DejaVuSans-30" x="222.65625"/>
      </g>
     </g>
    </g>
    <g id="ytick_8">
     <g id="line2d_17">
      <g>
       <use xlink:href="#m15e3afca68" x="56.50625" y="60.892394" style="stroke: #000000; stroke-width: 0.8"/>
      </g>
     </g>
     <g id="text_18">
      <!-- 0.175 -->
      <g transform="translate(20.878125 64.691613) scale(0.1 -0.1)">
       <use xlink:href="#DejaVuSans-30"/>
       <use xlink:href="#DejaVuSans-2e" x="63.623047"/>
       <use xlink:href="#DejaVuSans-31" x="95.410156"/>
       <use xlink:href="#DejaVuSans-37" x="159.033203"/>
       <use xlink:href="#DejaVuSans-35" x="222.65625"/>
      </g>
     </g>
    </g>
    <g id="ytick_9">
     <g id="line2d_18">
      <g>
       <use xlink:href="#m15e3afca68" x="56.50625" y="28.387004" style="stroke: #000000; stroke-width: 0.8"/>
      </g>
     </g>
     <g id="text_19">
      <!-- 0.200 -->
      <g transform="translate(20.878125 32.186223) scale(0.1 -0.1)">
       <use xlink:href="#DejaVuSans-30"/>
       <use xlink:href="#DejaVuSans-2e" x="63.623047"/>
       <use xlink:href="#DejaVuSans-32" x="95.410156"/>
       <use xlink:href="#DejaVuSans-30" x="159.033203"/>
       <use xlink:href="#DejaVuSans-30" x="222.65625"/>
      </g>
     </g>
    </g>
    <g id="text_20">
     <!-- density -->
     <g transform="translate(14.798437 173.706937) rotate(-90) scale(0.1 -0.1)">
      <defs>
       <path id="DejaVuSans-64" d="M 2906 2969 
L 2906 4863 
L 3481 4863 
L 3481 0 
L 2906 0 
L 2906 525 
Q 2725 213 2448 61 
Q 2172 -91 1784 -91 
Q 1150 -91 751 415 
Q 353 922 353 1747 
Q 353 2572 751 3078 
Q 1150 3584 1784 3584 
Q 2172 3584 2448 3432 
Q 2725 3281 2906 2969 
z
M 947 1747 
Q 947 1113 1208 752 
Q 1469 391 1925 391 
Q 2381 391 2643 752 
Q 2906 1113 2906 1747 
Q 2906 2381 2643 2742 
Q 2381 3103 1925 3103 
Q 1469 3103 1208 2742 
Q 947 2381 947 1747 
z
" transform="scale(0.015625)"/>
       <path id="DejaVuSans-65" d="M 3597 1894 
L 3597 1613 
L 953 1613 
Q 991 1019 1311 708 
Q 1631 397 2203 397 
Q 2534 397 2845 478 
Q 3156 559 3463 722 
L 3463 178 
Q 3153 47 2828 -22 
Q 2503 -91 2169 -91 
Q 1331 -91 842 396 
Q 353 884 353 1716 
Q 353 2575 817 3079 
Q 1281 3584 2069 3584 
Q 2775 3584 3186 3129 
Q 3597 2675 3597 1894 
z
M 3022 2063 
Q 3016 2534 2758 2815 
Q 2500 3097 2075 3097 
Q 1594 3097 1305 2825 
Q 1016 2553 972 2059 
L 3022 2063 
z
" transform="scale(0.015625)"/>
       <path id="DejaVuSans-6e" d="M 3513 2113 
L 3513 0 
L 2938 0 
L 2938 2094 
Q 2938 2591 2744 2837 
Q 2550 3084 2163 3084 
Q 1697 3084 1428 2787 
Q 1159 2491 1159 1978 
L 1159 0 
L 581 0 
L 581 3500 
L 1159 3500 
L 1159 2956 
Q 1366 3272 1645 3428 
Q 1925 3584 2291 3584 
Q 2894 3584 3203 3211 
Q 3513 2838 3513 2113 
z
" transform="scale(0.015625)"/>
       <path id="DejaVuSans-73" d="M 2834 3397 
L 2834 2853 
Q 2591 2978 2328 3040 
Q 2066 3103 1784 3103 
Q 1356 3103 1142 2972 
Q 928 2841 928 2578 
Q 928 2378 1081 2264 
Q 1234 2150 1697 2047 
L 1894 2003 
Q 2506 1872 2764 1633 
Q 3022 1394 3022 966 
Q 3022 478 2636 193 
Q 2250 -91 1575 -91 
Q 1294 -91 989 -36 
Q 684 19 347 128 
L 347 722 
Q 666 556 975 473 
Q 1284 391 1588 391 
Q 1994 391 2212 530 
Q 2431 669 2431 922 
Q 2431 1156 2273 1281 
Q 2116 1406 1581 1522 
L 1381 1569 
Q 847 1681 609 1914 
Q 372 2147 372 2553 
Q 372 3047 722 3315 
Q 1072 3584 1716 3584 
Q 2034 3584 2315 3537 
Q 2597 3491 2834 3397 
z
" transform="scale(0.015625)"/>
       <path id="DejaVuSans-69" d="M 603 3500 
L 1178 3500 
L 1178 0 
L 603 0 
L 603 3500 
z
M 603 4863 
L 1178 4863 
L 1178 4134 
L 603 4134 
L 603 4863 
z
" transform="scale(0.015625)"/>
       <path id="DejaVuSans-74" d="M 1172 4494 
L 1172 3500 
L 2356 3500 
L 2356 3053 
L 1172 3053 
L 1172 1153 
Q 1172 725 1289 603 
Q 1406 481 1766 481 
L 2356 481 
L 2356 0 
L 1766 0 
Q 1100 0 847 248 
Q 594 497 594 1153 
L 594 3053 
L 172 3053 
L 172 3500 
L 594 3500 
L 594 4494 
L 1172 4494 
z
" transform="scale(0.015625)"/>
       <path id="DejaVuSans-79" d="M 2059 -325 
Q 1816 -950 1584 -1140 
Q 1353 -1331 966 -1331 
L 506 -1331 
L 506 -850 
L 844 -850 
Q 1081 -850 1212 -737 
Q 1344 -625 1503 -206 
L 1606 56 
L 191 3500 
L 800 3500 
L 1894 763 
L 2988 3500 
L 3597 3500 
L 2059 -325 
z
" transform="scale(0.015625)"/>
      </defs>
      <use xlink:href="#DejaVuSans-64"/>
      <use xlink:href="#DejaVuSans-65" x="63.476562"/>
      <use xlink:href="#DejaVuSans-6e" x="125"/>
      <use xlink:href="#DejaVuSans-73" x="188.378906"/>
      <use xlink:href="#DejaVuSans-69" x="240.478516"/>
      <use xlink:href="#DejaVuSans-74" x="268.261719"/>
      <use xlink:href="#DejaVuSans-79" x="307.470703"/>
     </g>
    </g>
   </g>
   <g id="line2d_19">
    <path d="M 72.738977 288.430025 
L 94.837585 288.32693 
L 99.387298 288.102763 
L 102.637094 287.725093 
L 104.91195 287.257747 
L 106.861827 286.650744 
L 108.486725 285.94382 
L 110.111623 284.997366 
L 111.73652 283.746997 
L 113.036438 282.477495 
L 114.336356 280.921574 
L 115.636275 279.031209 
L 116.936193 276.754672 
L 118.236111 274.037363 
L 119.536029 270.822982 
L 120.835947 267.055032 
L 122.135865 262.678684 
L 123.435783 257.642979 
L 125.060681 250.354009 
L 126.685578 241.899426 
L 128.310476 232.243852 
L 130.260353 219.081172 
L 132.21023 204.297014 
L 134.485087 185.290726 
L 137.734882 155.957755 
L 142.284596 114.895043 
L 144.234473 99.121088 
L 145.85937 87.547601 
L 147.159288 79.588298 
L 148.459207 72.969856 
L 149.434145 68.974333 
L 150.409084 65.865446 
L 151.059043 64.30539 
L 151.709002 63.166052 
L 152.358961 62.453937 
L 153.00892 62.173124 
L 153.658879 62.325222 
L 154.308838 62.909359 
L 154.958797 63.922183 
L 155.608756 65.357904 
L 156.583695 68.285884 
L 157.558633 72.109175 
L 158.533572 76.779634 
L 159.83349 84.223163 
L 161.133408 92.907678 
L 162.758306 105.228809 
L 165.033162 124.511922 
L 168.932917 160.150951 
L 172.507691 191.96679 
L 174.782548 210.33257 
L 176.732425 224.437028 
L 178.682302 236.838988 
L 180.3072 245.818841 
L 181.932098 253.569346 
L 183.556995 260.12674 
L 184.856913 264.552359 
L 186.156831 268.287665 
L 187.45675 271.371034 
L 188.756668 273.84042 
L 189.731606 275.310878 
L 190.706545 276.469081 
L 191.681483 277.326372 
L 192.656422 277.891932 
L 193.631361 278.172558 
L 194.606299 278.172519 
L 195.581238 277.893483 
L 196.556176 277.334525 
L 197.531115 276.492205 
L 198.506053 275.360721 
L 199.480992 273.932128 
L 200.78091 271.548009 
L 202.080828 268.590914 
L 203.380746 265.030721 
L 204.680664 260.836461 
L 205.980583 255.978673 
L 207.60548 248.935257 
L 209.230378 240.781849 
L 210.855275 231.50918 
L 212.805153 218.940295 
L 214.75503 204.912695 
L 217.029886 186.992675 
L 220.604661 156.710565 
L 224.829395 121.195765 
L 226.779272 106.438821 
L 228.40417 95.550789 
L 229.704088 88.001794 
L 231.004006 81.650222 
L 231.978945 77.751729 
L 232.953883 74.646535 
L 233.928822 72.371565 
L 234.578781 71.330035 
L 235.22874 70.675396 
L 235.878699 70.411151 
L 236.528658 70.538702 
L 237.178617 71.057335 
L 237.828576 71.964225 
L 238.478535 73.254464 
L 239.453474 75.892854 
L 240.428412 79.345947 
L 241.403351 83.572634 
L 242.703269 90.324586 
L 244.003187 98.224248 
L 245.628085 109.471049 
L 247.577962 124.530396 
L 250.502777 149.032106 
L 255.37747 190.087064 
L 257.652327 207.542416 
L 259.602204 221.054441 
L 261.552081 233.009634 
L 263.176979 241.70087 
L 264.801877 249.211803 
L 266.426774 255.55315 
L 267.726692 259.807245 
L 269.02661 263.36161 
L 270.326528 266.247747 
L 271.626447 268.500184 
L 272.601385 269.79521 
L 273.576324 270.769116 
L 274.551262 271.436782 
L 275.526201 271.812601 
L 276.501139 271.910342 
L 277.476078 271.743058 
L 278.451017 271.32305 
L 279.425955 270.661884 
L 280.400894 269.770435 
L 281.700812 268.241316 
L 283.00073 266.344133 
L 284.625628 263.488866 
L 286.250525 260.136294 
L 288.200402 255.520093 
L 290.150279 250.33753 
L 292.750116 242.717081 
L 296.32489 231.395162 
L 301.524563 214.900231 
L 303.79942 208.381606 
L 305.749297 203.433197 
L 307.374194 199.88302 
L 308.674112 197.478346 
L 309.974031 195.500712 
L 311.273949 193.980658 
L 312.248887 193.155475 
L 313.223826 192.608526 
L 314.198764 192.344694 
L 315.173703 192.366347 
L 316.148641 192.673305 
L 317.12358 193.262847 
L 318.098519 194.129747 
L 319.073457 195.266358 
L 320.373375 197.183857 
L 321.673293 199.533368 
L 323.298191 203.023044 
L 324.923089 207.051131 
L 326.872966 212.468148 
L 329.472802 220.405272 
L 339.547167 252.109879 
L 341.822024 258.264254 
L 344.096881 263.778394 
L 346.046758 267.960808 
L 347.996635 271.634726 
L 349.946512 274.812282 
L 351.896389 277.519305 
L 353.846266 279.791642 
L 355.796144 281.671651 
L 357.746021 283.20507 
L 359.695898 284.438368 
L 361.645775 285.416645 
L 363.920632 286.291718 
L 366.195488 286.937066 
L 368.795325 287.459256 
L 372.04512 287.879833 
L 376.269854 288.17975 
L 382.444465 288.358496 
L 394.468707 288.425679 
L 397.393523 288.428013 
L 397.393523 288.428013 
" clip-path="url(#pca4deb6c2a)" style="fill: none; stroke: #ff0000; stroke-width: 1.5; stroke-linecap: square"/>
   </g>
   <g id="patch_33">
    <path d="M 56.50625 288.430125 
L 56.50625 22.318125 
" style="fill: none; stroke: #000000; stroke-width: 0.8; stroke-linejoin: miter; stroke-linecap: square"/>
   </g>
   <g id="patch_34">
    <path d="M 413.62625 288.430125 
L 413.62625 22.318125 
" style="fill: none; stroke: #000000; stroke-width: 0.8; stroke-linejoin: miter; stroke-linecap: square"/>
   </g>
   <g id="patch_35">
    <path d="M 56.50625 288.430125 
L 413.62625 288.430125 
" style="fill: none; stroke: #000000; stroke-width: 0.8; stroke-linejoin: miter; stroke-linecap: square"/>
   </g>
   <g id="patch_36">
    <path d="M 56.50625 22.318125 
L 413.62625 22.318125 
" style="fill: none; stroke: #000000; stroke-width: 0.8; stroke-linejoin: miter; stroke-linecap: square"/>
   </g>
   <g id="text_21">
    <!-- Gaussian Mixture Model Approximation of a Multimodal Distribution -->
    <g transform="translate(32.036563 16.318125) scale(0.12 -0.12)">
     <defs>
      <path id="DejaVuSans-47" d="M 3809 666 
L 3809 1919 
L 2778 1919 
L 2778 2438 
L 4434 2438 
L 4434 434 
Q 4069 175 3628 42 
Q 3188 -91 2688 -91 
Q 1594 -91 976 548 
Q 359 1188 359 2328 
Q 359 3472 976 4111 
Q 1594 4750 2688 4750 
Q 3144 4750 3555 4637 
Q 3966 4525 4313 4306 
L 4313 3634 
Q 3963 3931 3569 4081 
Q 3175 4231 2741 4231 
Q 1884 4231 1454 3753 
Q 1025 3275 1025 2328 
Q 1025 1384 1454 906 
Q 1884 428 2741 428 
Q 3075 428 3337 486 
Q 3600 544 3809 666 
z
" transform="scale(0.015625)"/>
      <path id="DejaVuSans-61" d="M 2194 1759 
Q 1497 1759 1228 1600 
Q 959 1441 959 1056 
Q 959 750 1161 570 
Q 1363 391 1709 391 
Q 2188 391 2477 730 
Q 2766 1069 2766 1631 
L 2766 1759 
L 2194 1759 
z
M 3341 1997 
L 3341 0 
L 2766 0 
L 2766 531 
Q 2569 213 2275 61 
Q 1981 -91 1556 -91 
Q 1019 -91 701 211 
Q 384 513 384 1019 
Q 384 1609 779 1909 
Q 1175 2209 1959 2209 
L 2766 2209 
L 2766 2266 
Q 2766 2663 2505 2880 
Q 2244 3097 1772 3097 
Q 1472 3097 1187 3025 
Q 903 2953 641 2809 
L 641 3341 
Q 956 3463 1253 3523 
Q 1550 3584 1831 3584 
Q 2591 3584 2966 3190 
Q 3341 2797 3341 1997 
z
" transform="scale(0.015625)"/>
      <path id="DejaVuSans-75" d="M 544 1381 
L 544 3500 
L 1119 3500 
L 1119 1403 
Q 1119 906 1312 657 
Q 1506 409 1894 409 
Q 2359 409 2629 706 
Q 2900 1003 2900 1516 
L 2900 3500 
L 3475 3500 
L 3475 0 
L 2900 0 
L 2900 538 
Q 2691 219 2414 64 
Q 2138 -91 1772 -91 
Q 1169 -91 856 284 
Q 544 659 544 1381 
z
M 1991 3584 
L 1991 3584 
z
" transform="scale(0.015625)"/>
      <path id="DejaVuSans-20" transform="scale(0.015625)"/>
      <path id="DejaVuSans-4d" d="M 628 4666 
L 1569 4666 
L 2759 1491 
L 3956 4666 
L 4897 4666 
L 4897 0 
L 4281 0 
L 4281 4097 
L 3078 897 
L 2444 897 
L 1241 4097 
L 1241 0 
L 628 0 
L 628 4666 
z
" transform="scale(0.015625)"/>
      <path id="DejaVuSans-72" d="M 2631 2963 
Q 2534 3019 2420 3045 
Q 2306 3072 2169 3072 
Q 1681 3072 1420 2755 
Q 1159 2438 1159 1844 
L 1159 0 
L 581 0 
L 581 3500 
L 1159 3500 
L 1159 2956 
Q 1341 3275 1631 3429 
Q 1922 3584 2338 3584 
Q 2397 3584 2469 3576 
Q 2541 3569 2628 3553 
L 2631 2963 
z
" transform="scale(0.015625)"/>
      <path id="DejaVuSans-6f" d="M 1959 3097 
Q 1497 3097 1228 2736 
Q 959 2375 959 1747 
Q 959 1119 1226 758 
Q 1494 397 1959 397 
Q 2419 397 2687 759 
Q 2956 1122 2956 1747 
Q 2956 2369 2687 2733 
Q 2419 3097 1959 3097 
z
M 1959 3584 
Q 2709 3584 3137 3096 
Q 3566 2609 3566 1747 
Q 3566 888 3137 398 
Q 2709 -91 1959 -91 
Q 1206 -91 779 398 
Q 353 888 353 1747 
Q 353 2609 779 3096 
Q 1206 3584 1959 3584 
z
" transform="scale(0.015625)"/>
      <path id="DejaVuSans-6c" d="M 603 4863 
L 1178 4863 
L 1178 0 
L 603 0 
L 603 4863 
z
" transform="scale(0.015625)"/>
      <path id="DejaVuSans-41" d="M 2188 4044 
L 1331 1722 
L 3047 1722 
L 2188 4044 
z
M 1831 4666 
L 2547 4666 
L 4325 0 
L 3669 0 
L 3244 1197 
L 1141 1197 
L 716 0 
L 50 0 
L 1831 4666 
z
" transform="scale(0.015625)"/>
      <path id="DejaVuSans-70" d="M 1159 525 
L 1159 -1331 
L 581 -1331 
L 581 3500 
L 1159 3500 
L 1159 2969 
Q 1341 3281 1617 3432 
Q 1894 3584 2278 3584 
Q 2916 3584 3314 3078 
Q 3713 2572 3713 1747 
Q 3713 922 3314 415 
Q 2916 -91 2278 -91 
Q 1894 -91 1617 61 
Q 1341 213 1159 525 
z
M 3116 1747 
Q 3116 2381 2855 2742 
Q 2594 3103 2138 3103 
Q 1681 3103 1420 2742 
Q 1159 2381 1159 1747 
Q 1159 1113 1420 752 
Q 1681 391 2138 391 
Q 2594 391 2855 752 
Q 3116 1113 3116 1747 
z
" transform="scale(0.015625)"/>
      <path id="DejaVuSans-6d" d="M 3328 2828 
Q 3544 3216 3844 3400 
Q 4144 3584 4550 3584 
Q 5097 3584 5394 3201 
Q 5691 2819 5691 2113 
L 5691 0 
L 5113 0 
L 5113 2094 
Q 5113 2597 4934 2840 
Q 4756 3084 4391 3084 
Q 3944 3084 3684 2787 
Q 3425 2491 3425 1978 
L 3425 0 
L 2847 0 
L 2847 2094 
Q 2847 2600 2669 2842 
Q 2491 3084 2119 3084 
Q 1678 3084 1418 2786 
Q 1159 2488 1159 1978 
L 1159 0 
L 581 0 
L 581 3500 
L 1159 3500 
L 1159 2956 
Q 1356 3278 1631 3431 
Q 1906 3584 2284 3584 
Q 2666 3584 2933 3390 
Q 3200 3197 3328 2828 
z
" transform="scale(0.015625)"/>
      <path id="DejaVuSans-66" d="M 2375 4863 
L 2375 4384 
L 1825 4384 
Q 1516 4384 1395 4259 
Q 1275 4134 1275 3809 
L 1275 3500 
L 2222 3500 
L 2222 3053 
L 1275 3053 
L 1275 0 
L 697 0 
L 697 3053 
L 147 3053 
L 147 3500 
L 697 3500 
L 697 3744 
Q 697 4328 969 4595 
Q 1241 4863 1831 4863 
L 2375 4863 
z
" transform="scale(0.015625)"/>
      <path id="DejaVuSans-44" d="M 1259 4147 
L 1259 519 
L 2022 519 
Q 2988 519 3436 956 
Q 3884 1394 3884 2338 
Q 3884 3275 3436 3711 
Q 2988 4147 2022 4147 
L 1259 4147 
z
M 628 4666 
L 1925 4666 
Q 3281 4666 3915 4102 
Q 4550 3538 4550 2338 
Q 4550 1131 3912 565 
Q 3275 0 1925 0 
L 628 0 
L 628 4666 
z
" transform="scale(0.015625)"/>
      <path id="DejaVuSans-62" d="M 3116 1747 
Q 3116 2381 2855 2742 
Q 2594 3103 2138 3103 
Q 1681 3103 1420 2742 
Q 1159 2381 1159 1747 
Q 1159 1113 1420 752 
Q 1681 391 2138 391 
Q 2594 391 2855 752 
Q 3116 1113 3116 1747 
z
M 1159 2969 
Q 1341 3281 1617 3432 
Q 1894 3584 2278 3584 
Q 2916 3584 3314 3078 
Q 3713 2572 3713 1747 
Q 3713 922 3314 415 
Q 2916 -91 2278 -91 
Q 1894 -91 1617 61 
Q 1341 213 1159 525 
L 1159 0 
L 581 0 
L 581 4863 
L 1159 4863 
L 1159 2969 
z
" transform="scale(0.015625)"/>
     </defs>
     <use xlink:href="#DejaVuSans-47"/>
     <use xlink:href="#DejaVuSans-61" x="77.490234"/>
     <use xlink:href="#DejaVuSans-75" x="138.769531"/>
     <use xlink:href="#DejaVuSans-73" x="202.148438"/>
     <use xlink:href="#DejaVuSans-73" x="254.248047"/>
     <use xlink:href="#DejaVuSans-69" x="306.347656"/>
     <use xlink:href="#DejaVuSans-61" x="334.130859"/>
     <use xlink:href="#DejaVuSans-6e" x="395.410156"/>
     <use xlink:href="#DejaVuSans-20" x="458.789062"/>
     <use xlink:href="#DejaVuSans-4d" x="490.576172"/>
     <use xlink:href="#DejaVuSans-69" x="576.855469"/>
     <use xlink:href="#DejaVuSans-78" x="604.638672"/>
     <use xlink:href="#DejaVuSans-74" x="663.818359"/>
     <use xlink:href="#DejaVuSans-75" x="703.027344"/>
     <use xlink:href="#DejaVuSans-72" x="766.40625"/>
     <use xlink:href="#DejaVuSans-65" x="805.269531"/>
     <use xlink:href="#DejaVuSans-20" x="866.792969"/>
     <use xlink:href="#DejaVuSans-4d" x="898.580078"/>
     <use xlink:href="#DejaVuSans-6f" x="984.859375"/>
     <use xlink:href="#DejaVuSans-64" x="1046.041016"/>
     <use xlink:href="#DejaVuSans-65" x="1109.517578"/>
     <use xlink:href="#DejaVuSans-6c" x="1171.041016"/>
     <use xlink:href="#DejaVuSans-20" x="1198.824219"/>
     <use xlink:href="#DejaVuSans-41" x="1230.611328"/>
     <use xlink:href="#DejaVuSans-70" x="1299.019531"/>
     <use xlink:href="#DejaVuSans-70" x="1362.496094"/>
     <use xlink:href="#DejaVuSans-72" x="1425.972656"/>
     <use xlink:href="#DejaVuSans-6f" x="1464.835938"/>
     <use xlink:href="#DejaVuSans-78" x="1522.892578"/>
     <use xlink:href="#DejaVuSans-69" x="1582.072266"/>
     <use xlink:href="#DejaVuSans-6d" x="1609.855469"/>
     <use xlink:href="#DejaVuSans-61" x="1707.267578"/>
     <use xlink:href="#DejaVuSans-74" x="1768.546875"/>
     <use xlink:href="#DejaVuSans-69" x="1807.755859"/>
     <use xlink:href="#DejaVuSans-6f" x="1835.539062"/>
     <use xlink:href="#DejaVuSans-6e" x="1896.720703"/>
     <use xlink:href="#DejaVuSans-20" x="1960.099609"/>
     <use xlink:href="#DejaVuSans-6f" x="1991.886719"/>
     <use xlink:href="#DejaVuSans-66" x="2053.068359"/>
     <use xlink:href="#DejaVuSans-20" x="2088.273438"/>
     <use xlink:href="#DejaVuSans-61" x="2120.060547"/>
     <use xlink:href="#DejaVuSans-20" x="2181.339844"/>
     <use xlink:href="#DejaVuSans-4d" x="2213.126953"/>
     <use xlink:href="#DejaVuSans-75" x="2299.40625"/>
     <use xlink:href="#DejaVuSans-6c" x="2362.785156"/>
     <use xlink:href="#DejaVuSans-74" x="2390.568359"/>
     <use xlink:href="#DejaVuSans-69" x="2429.777344"/>
     <use xlink:href="#DejaVuSans-6d" x="2457.560547"/>
     <use xlink:href="#DejaVuSans-6f" x="2554.972656"/>
     <use xlink:href="#DejaVuSans-64" x="2616.154297"/>
     <use xlink:href="#DejaVuSans-61" x="2679.630859"/>
     <use xlink:href="#DejaVuSans-6c" x="2740.910156"/>
     <use xlink:href="#DejaVuSans-20" x="2768.693359"/>
     <use xlink:href="#DejaVuSans-44" x="2800.480469"/>
     <use xlink:href="#DejaVuSans-69" x="2877.482422"/>
     <use xlink:href="#DejaVuSans-73" x="2905.265625"/>
     <use xlink:href="#DejaVuSans-74" x="2957.365234"/>
     <use xlink:href="#DejaVuSans-72" x="2996.574219"/>
     <use xlink:href="#DejaVuSans-69" x="3037.6875"/>
     <use xlink:href="#DejaVuSans-62" x="3065.470703"/>
     <use xlink:href="#DejaVuSans-75" x="3128.947266"/>
     <use xlink:href="#DejaVuSans-74" x="3192.326172"/>
     <use xlink:href="#DejaVuSans-69" x="3231.535156"/>
     <use xlink:href="#DejaVuSans-6f" x="3259.318359"/>
     <use xlink:href="#DejaVuSans-6e" x="3320.5"/>
    </g>
   </g>
  </g>
 </g>
 <defs>
  <clipPath id="pca4deb6c2a">
   <rect x="56.50625" y="22.318125" width="357.12" height="266.112"/>
  </clipPath>
 </defs>
</svg>